<svg width="512" height="512" viewBox="0 0 512 512" fill="none" xmlns="http://www.w3.org/2000/svg">
  <defs>
    <linearGradient id="plugGrad" x1="72" y1="56" x2="442" y2="454" gradientUnits="userSpaceOnUse">
      <stop offset="0" stop-color="#155874"/>
      <stop offset="0.32" stop-color="#246F89"/>
      <stop offset="0.58" stop-color="#317F90"/>
      <stop offset="0.82" stop-color="#479095"/>
      <stop offset="1" stop-color="#60A298"/>
    </linearGradient>
    <linearGradient id="lineGrad" x1="112" y1="164" x2="400" y2="348" gradientUnits="userSpaceOnUse">
      <stop offset="0" stop-color="#60A298"/>
      <stop offset="1" stop-color="#155874"/>
    </linearGradient>
  </defs>
  <rect x="16" y="16" width="480" height="480" rx="120" fill="#0C2330"/>
  <path d="M168 168L256 256L344 168" stroke="url(#lineGrad)" stroke-width="26" stroke-linecap="round"/>
  <path d="M168 344L256 256L344 344" stroke="url(#lineGrad)" stroke-width="26" stroke-linecap="round"/>
  <circle cx="168" cy="168" r="64" fill="url(#plugGrad)"/>
  <circle cx="344" cy="168" r="64" fill="url(#plugGrad)"/>
  <circle cx="256" cy="344" r="64" fill="url(#plugGrad)"/>
  <g fill="#F2FCFF">
    <rect x="148" y="112" width="12" height="24" rx="4"/>
    <rect x="176" y="112" width="12" height="24" rx="4"/>
    <rect x="324" y="112" width="12" height="24" rx="4"/>
    <rect x="352" y="112" width="12" height="24" rx="4"/>
    <rect x="236" y="289" width="12" height="24" rx="4"/>
    <rect x="264" y="289" width="12" height="24" rx="4"/>
  </g>
</svg>
